<svg xmlns="http://www.w3.org/2000/svg" viewBox="0 0 200 200">
  <!-- Background Circle -->
  <circle cx="100" cy="100" r="90" fill="#f0f6ff" />
  
  <!-- Brain representing AI -->
  <path d="M70 60 C 60 60, 55 70, 55 80 C 55 90, 60 97, 70 100 C 75 101, 73 105, 70 110 C 68 115, 70 120, 75 122 C 80 124, 85 122, 87 117 C 89 112, 93 110, 98 110 C 103 110, 107 112, 109 117 C 111 122, 116 124, 121 122 C 126 120, 128 115, 126 110 C 123 105, 121 101, 126 100 C 136 97, 141 90, 141 80 C 141 70, 136 60, 126 60 C 116 60, 110 70, 110 75 C 110 80, 105 85, 98 85 C 91 85, 86 80, 86 75 C 86 70, 80 60, 70 60" fill="#6200ea" />
  
  <!-- Career Path Lines -->
  <path d="M40 130 L 70 150 L 100 130 L 130 150 L 160 130" stroke="#00c853" stroke-width="4" fill="none" stroke-linecap="round" />
  
  <!-- Career Icons -->
  <!-- Business Icon -->
  <rect x="60" y="150" width="20" height="20" rx="2" fill="#ff6d00" />
  <line x1="65" y1="155" x2="75" y2="155" stroke="white" stroke-width="2" />
  <line x1="65" y1="160" x2="75" y2="160" stroke="white" stroke-width="2" />
  <line x1="65" y1="165" x2="75" y2="165" stroke="white" stroke-width="2" />
  
  <!-- Tech Icon -->
  <rect x="90" y="150" width="20" height="20" rx="2" fill="#2962ff" />
  <polygon points="100,155 105,160 100,165 95,160" fill="white" />
  
  <!-- Creative Icon -->
  <rect x="120" y="150" width="20" height="20" rx="2" fill="#aa00ff" />
  <circle cx="130" cy="160" r="5" fill="white" />
  
  <!-- User silhouette -->
  <circle cx="100" cy="48" r="10" fill="#546e7a" />
  <path d="M80 110 C 80 95, 90 80, 100 80 C 110 80, 120 95, 120 110" fill="#546e7a" />
</svg>
